<?xml version="1.0" standalone="no"?>
<!DOCTYPE svg PUBLIC "-//W3C//DTD SVG 20010904//EN"
 "http://www.w3.org/TR/2001/REC-SVG-20010904/DTD/svg10.dtd">
<svg version="1.0" xmlns="http://www.w3.org/2000/svg"
 width="512.000000pt" height="512.000000pt" viewBox="0 0 512.000000 512.000000"
 preserveAspectRatio="xMidYMid meet">
<metadata>
Created by potrace 1.11, written by Peter Selinger 2001-2013
</metadata>
<g transform="translate(0.000000,512.000000) scale(0.100000,-0.100000)"
fill="#000000" stroke="none">
<path d="M115 5108 c-42 -15 -75 -46 -96 -93 -18 -38 -18 -130 -19 -2445 0
-1662 3 -2417 11 -2443 14 -50 55 -95 104 -112 34 -12 402 -14 2450 -14 2323
-1 2411 0 2450 18 48 22 78 54 94 100 8 25 10 665 9 2462 l-3 2427 -31 39
c-17 21 -44 45 -60 53 -26 13 -320 15 -2454 17 -1670 1 -2434 -2 -2455 -9z"/>
</g>
</svg>
